<?xml version="1.0" encoding="utf-8"?>
<!-- Generator: Adobe Illustrator 26.3.1, SVG Export Plug-In . SVG Version: 6.00 Build 0)  -->
<svg version="1.1" id="Calque_1" xmlns="http://www.w3.org/2000/svg" xmlns:xlink="http://www.w3.org/1999/xlink" x="0px" y="0px"
	 viewBox="0 0 496.65 114.73" style="enable-background:new 0 0 496.65 114.73;" xml:space="preserve">
<path d="M355.36,10.23c-1.03-3.81-6.73-8.48-16.08-8.48c-25.26,0-38.31,25.29-38.31,41.09l-11.27,8.01v0.94h10.96v51.17l-11.19,7.06
	v0.94h39.57v-0.94l-11.27-7.06V51.79h17.97l4-8.87h-22.05v-1.15c0-25.58,5.45-32.13,11.95-32.13c7.56,0,14.14,9.58,15.66,10.24
	c1.38,0.6,4.37-1.63,6.87-3.94C353.7,14.54,355.89,12.2,355.36,10.23z"/>
<g>
	<path d="M357.91,79.08c0.22,1.42,0.86,6.72,7,6.69c3.47-0.01,5.47-1.93,5.47-4.98c0-3.13-2.33-4.42-5-5.78l-1.2-0.53
		c-4.45-2.05-7.18-4.34-7.18-8.78c0-5.2,4.71-8.25,10.92-8.25c1.58,0,3.16,0.15,4.38,0.4l2.31,0.39V65h-1.57
		c-0.98-3.91-2.12-5.74-5.83-5.74c-3.1,0-4.89,1.78-4.89,4.45c0,2.74,1.49,4.31,5.38,6.16l1.87,0.91c2,0.98,3.56,2.09,4.65,3.34
		c1.09,1.22,1.65,2.85,1.65,4.87c0,5.45-4.63,8.65-11.29,8.65c-3.63,0-8.28-1.36-8.28-1.36l-0.01-7.2H357.91z"/>
	<path d="M388.79,68.61c-1.22,0-2.14,0.44-2.76,1.33c-0.62,0.89-1,1.98-1.13,3.25h7.21C392.1,70.41,391.01,68.61,388.79,68.61
		 M384.77,75.01c-0.07,0.18-0.04,0.62-0.04,0.91c0,4.25,2.22,8.03,6.47,8.03c1.33,0,2.4-0.27,3.2-0.78c0.82-0.51,1.49-1.07,2-1.65
		l0.8,1.51c-0.98,1.25-2.18,2.31-3.6,3.2c-1.42,0.87-3.16,1.31-5.18,1.31c-4.98,0-9-3.56-9-9.76c0-6.05,4.07-11,10.18-11
		c8.53,0,7.56,8.23,7.56,8.23H384.77z"/>
	<path d="M406.72,85.77c2.14,0,3.38-1.16,3.38-2.78c0-1.87-1.58-2.47-3.91-3.78l-1.42-0.82c-1.31-0.76-2.27-1.56-2.89-2.42
		c-0.62-0.87-0.93-2-0.93-3.36c0-3.6,3.49-5.82,7.94-5.82c2.49,0,4.27,0.49,5.31,1v5h-1.27c-0.37-1.26-1.15-4.27-4.38-4.27
		c-1.96,0-2.91,1.13-2.91,2.4c0,0.73,0.22,1.36,0.69,1.87c0.47,0.51,1.29,1.11,2.51,1.78l1.62,0.91c1.65,0.91,2.8,1.78,3.47,2.62
		c0.67,0.82,1,1.87,1,3.11c0,1.85-0.71,3.36-2.11,4.54c-1.4,1.18-3.4,1.76-5.98,1.76c-1.53,0-2.82-0.18-3.85-0.53
		c-1.02-0.36-1.96-0.64-2.45-0.89v-5.09l1.31-0.04C401.96,81.41,402.73,85.77,406.72,85.77"/>
	<path d="M424.62,85.77c2.14,0,3.38-1.16,3.38-2.78c0-1.87-1.58-2.47-3.91-3.78l-1.42-0.82c-1.31-0.76-2.27-1.56-2.89-2.42
		c-0.62-0.87-0.93-2-0.93-3.36c0-3.6,3.49-5.82,7.94-5.82c2.49,0,4.27,0.49,5.31,1v5h-1.27c-0.37-1.26-1.15-4.27-4.38-4.27
		c-1.96,0-2.91,1.13-2.91,2.4c0,0.73,0.22,1.36,0.69,1.87c0.47,0.51,1.29,1.11,2.51,1.78l1.62,0.91c1.65,0.91,2.8,1.78,3.47,2.62
		c0.67,0.82,1,1.87,1,3.11c0,1.85-0.71,3.36-2.11,4.54c-1.4,1.18-3.4,1.76-5.98,1.76c-1.53,0-2.82-0.18-3.85-0.53
		c-1.02-0.36-1.96-0.64-2.45-0.89v-5.09l1.31-0.04C419.86,81.41,420.63,85.77,424.62,85.77"/>
	<path d="M439.05,56.56c0.58-0.62,1.36-0.93,2.33-0.93c0.98,0,1.76,0.31,2.31,0.93c0.58,0.62,0.87,1.38,0.87,2.25
		c0,0.85-0.29,1.58-0.87,2.2c-0.58,0.6-1.36,0.91-2.31,0.91c-0.98,0-1.76-0.31-2.33-0.91c-0.56-0.62-0.85-1.36-0.85-2.2
		C438.2,57.93,438.49,57.18,439.05,56.56 M435.87,69.1l8.34-2.56v17.99l2.57,2.2v0.27h-10.6v-0.27l2.56-2.2V71.19l-2.87-1.82V69.1z"
		/>
	<path d="M454.14,76.01c0,4.87,1.62,9.8,5.25,9.8c2.76,0,4.09-3.27,4.09-7.43c0-4.89-1.69-9.74-5.38-9.74
		C455.45,68.65,454.14,71.9,454.14,76.01 M458.88,66.78c6.38,0,10.56,4.16,10.56,10.23c0,4.98-3.38,10.49-10.78,10.49
		c-6.47,0-10.56-4.05-10.56-10.29C448.1,71.3,452.54,66.78,458.88,66.78"/>
	<path d="M471.39,69.1l8.34-2.56v2.94c0,0,3.65-2.74,6.87-2.74c3.76,0,5.56,2.11,5.56,6.05v11.74l2.56,2.2v0.27h-10.58v-0.27
		l2.56-2.2V73.43c0-1.96-1.36-3.43-3.6-3.43c-0.87,0-1.6,0.18-2.16,0.53c-0.56,0.33-0.96,0.64-1.2,0.89v13.1l2.56,2.2v0.27H471.7
		v-0.27l2.56-2.2V71.19l-2.87-1.82V69.1z"/>
</g>
<path d="M13.06,83.97c0.84,11.24,4.7,23.31,25.04,23.31c12.87,0,19.93-7.22,19.93-18.21c0-11.3-8.24-16.4-17.66-21.19l-3.69-1.73
	C21.38,58.93,11.1,51.32,11.1,35.23c0-17.97,16.01-28.57,37.12-28.57c8.17,0,22.72,2.28,22.72,2.28v23.47h-4.52
	c-0.69-6.83-2.4-19.93-20.8-19.93c-11.62,0-17.81,6.83-17.81,16.56c0,9.97,5.34,15.38,19.46,22.29l6.75,3.38
	c13.26,6.51,21.03,14.13,21.03,28.17c0,19.15-16.32,30.21-38.53,30.21c-15.55,0-28.29-4.6-28.29-4.6V83.97H13.06z"/>
<path d="M152.72,103.43c-3.3,2.35-7.14,4.55-11.54,6.59c-4.32,2.04-8.79,3.06-13.26,3.06c-12.16,0-18.29-6.44-18.29-19.31l0.16-43.4
	l-9.34-7.46v-0.94h26.22l-0.01,47.48c0,8.16,4.71,13.34,12.87,13.34c7.72,0,12.32-4.55,13.18-5.81V50.38l-9.34-7.46v-0.94h26.53
	v60.98l11.2,7.06v0.94H153.1L152.72,103.43z"/>
<path d="M245.92,110.96h-39.41v-0.94l11.19-7.06V51.93l-9.97-5.49V45.5l27-6.57v13.03c4.16-5.26,11.62-12.16,19.15-12.16
	c4.56,0,8.22,2.39,9.97,6.05c0.9,1.89-0.89,4.66-2.17,6.36c-2.11,2.79-4.72,5.61-6.22,5.24c-1.42-0.35-6.16-5.81-11.69-5.81
	c-6.59,0-8.63,6.51-9.02,9.03v42.3l11.19,7.06V110.96z"/>
</svg>
